<svg xmlns="http://www.w3.org/2000/svg" width="423.681" height="335.505" viewBox="0 0 423.681 335.505">
  <g id="Group_11363" data-name="Group 11363" transform="translate(-485.841 -19.005)">
    <g id="Group_1" data-name="Group 1" transform="translate(553.633 176.843)">
      <path id="Path_1" data-name="Path 1" d="M503.3,227h3.1V58.642H849.883V223.9H503.3V227h0v3.1H856.088V52.437H500.2V230.1h3.1Z" transform="translate(-500.2 -52.437)" fill="#323d83"/>
    </g>
    <text id="FICRI" transform="translate(697.25 337.214)" fill="#323d83" font-size="30" font-family="Poppins-Light, Poppins" font-weight="300" letter-spacing="0.7em"><tspan x="0" y="0">FICRI</tspan></text>
    <path id="Path_2" data-name="Path 2" d="M662.823,108.329a36.391,36.391,0,0,1-22.7,28.379c-7.309,2.762-15.339,3.059-22.732,5.595-8.607,2.951-17.341,9.485-21.42,17.8-4.225,8.616-3.6,18.79-1.005,27.76a67.354,67.354,0,0,0,9.5,19.8c5.349,7.766,11.9,14.423,18.795,20.806,11.628,10.778,12.317,34.936,2.394,47.372-12.506,15.669-37.666,13.465-55.072,10.637,0,0-86.945-18.025-45.592-112.4,12.488-28.5,46.569-39.3,70.491-55.4,13-8.753,24.88-20.754,28.511-36,5.344-22.4-8.1-44.544-20.934-63.669,10.259,22.8,7.242,51.031-7.606,71.148C583.2,106.762,564.5,117.1,547.5,128.809c-47.4,32.642-76.95,84.575-53.382,141.752q1.551,3.76,3.3,7.431c13.29,27.935,42.113,47.556,72.215,53.226,28.535,5.377,69.236-.595,86.779-26.188,16.944-24.71,4.844-56.536-15.853-74.75-6.888-6.062-14.007-11.7-20.485-18.252-8.574-8.673-20.787-20.9-21.264-33.973-.439-12.039,11.571-14.154,20.886-14.7,8.979-.529,17.983-2.743,25.659-7.426C661.454,146.108,666.166,126.01,662.823,108.329Z" transform="translate(0 0)" fill="#e39e0f"/>
    <path id="Path_3" data-name="Path 3" d="M573.35,127.724H550.566c-2.521,13.649-11.529,20.8-26.9,21.727v-8.876c12.322,0,18.55-6.756,18.55-22.388V67.577h9.272v50.875H573.35Z" transform="translate(140.764 180.743)" fill="#323d83"/>
    <path id="Path_4" data-name="Path 4" d="M642.412,147.774H532.452V138.5H613c.132-1.591.264-3.182.264-4.768,0-10.2-2.384-18.417-7.285-24.512q-8.548-10.729-25.437-10.731H553.249c4.773-8.611,11.529-20.664,20.273-36.3h11L568.753,89.35h11.789c13.38,0,24.111,4.107,32.061,12.454,7.818,8.215,11.656,19.078,11.656,32.59V138.5h18.153Z" transform="translate(173.447 160.694)" fill="#323d83"/>
    <path id="Path_5" data-name="Path 5" d="M629.265,114.042c0,17.223-10.863,30.074-27.557,30.074H554.676v-9.272H580.51c-4.372-5.3-6.624-12.19-6.624-20.669,0-17.223,10.731-30.074,27.954-30.074C618.666,84.1,629.265,96.026,629.265,114.042Zm-10.2-.925c0-13.248-5.963-21.33-16.826-21.33-11.789,0-17.884,8.876-17.884,22.921,0,13.248,6.492,21.727,17.355,21.727C613.232,136.435,619.063,128.616,619.063,113.117ZM606.608,74.432h-9.537V63.172h9.537Z" transform="translate(256.146 164.352)" fill="#323d83"/>
    <circle id="Ellipse_1" data-name="Ellipse 1" cx="5.888" cy="5.888" r="5.888" transform="translate(531.864 193.111)" fill="#e39e0f"/>
    <circle id="Ellipse_2" data-name="Ellipse 2" cx="5.888" cy="5.888" r="5.888" transform="translate(531.864 219.489)" fill="#e39e0f"/>
  </g>
</svg>
