<svg xmlns="http://www.w3.org/2000/svg" xmlns:xlink="http://www.w3.org/1999/xlink" width="320.57" height="264.095" viewBox="0 0 320.57 264.095">
  <defs>
    <filter id="Path_21" x="0" y="0" width="320.57" height="264.095" filterUnits="userSpaceOnUse">
      <feOffset dy="-3" input="SourceAlpha"/>
      <feGaussianBlur stdDeviation="10" result="blur"/>
      <feFlood flood-opacity="0.439"/>
      <feComposite operator="in" in2="blur"/>
      <feComposite in="SourceGraphic"/>
    </filter>
  </defs>
  <g id="Group_11367" data-name="Group 11367" transform="translate(-368.43 34.637)">
    <path id="Path_22" data-name="Path 22" d="M2650,0H2395.887l-6.245.673v9.909l269.129,4.039V0Z" transform="translate(-2000.53 21.998)" fill="#e0e0e0"/>
    <g transform="matrix(1, 0, 0, 1, 368.43, -34.64)" filter="url(#Path_21)">
      <path id="Path_21-2" data-name="Path 21" d="M0,0H233c12.15,0,22,8.9,22,19.884v162.69c0,10.982-9.85,19.884-22,19.884H22c-12.15,0-22-8.9-22-19.884V19.884C0,14.723-5.57,3.836-5.57,0-5.57-3.684,0,0,0,0Z" transform="translate(35.57 34.64)" fill="#fff"/>
    </g>
    <g id="Group_2" data-name="Group 2" transform="translate(-66.956 -8.162)">
      <g id="Group_1" data-name="Group 1" transform="translate(521.879 102.911)">
        <path id="Path_1" data-name="Path 1" d="M501.849,145.235H503.5v-89.5H686.09v87.85H501.849v1.649h0v1.649H689.388V52.437H500.2v94.447h1.649Z" transform="translate(-500.2 -52.437)" fill="#323d83"/>
      </g>
      <text id="FICRI" transform="translate(598.225 188.152)" fill="#323d83" font-size="16" font-family="Poppins-Light, Poppins" font-weight="300" letter-spacing="0.7em"><tspan x="0" y="0">FICRI</tspan></text>
      <path id="Path_2" data-name="Path 2" d="M579.924,66.489a19.345,19.345,0,0,1-12.067,15.086c-3.885,1.468-8.154,1.626-12.084,2.974-4.575,1.569-9.218,5.042-11.387,9.464-2.246,4.58-1.915,9.989-.534,14.757a35.8,35.8,0,0,0,5.05,10.523,67.4,67.4,0,0,0,9.991,11.06c6.181,5.73,6.548,18.572,1.273,25.183-6.648,8.33-20.023,7.158-29.276,5.654,0,0-46.219-9.582-24.237-59.749,6.638-15.151,24.756-20.891,37.473-29.452,6.912-4.653,13.226-11.033,15.156-19.139,2.841-11.909-4.307-23.679-11.128-33.846a38.447,38.447,0,0,1-4.043,37.822c-6.515,8.829-16.454,14.326-25.491,20.55-25.2,17.352-40.906,44.959-28.378,75.355q.824,2,1.754,3.95c7.065,14.85,22.387,25.281,38.389,28.295,15.169,2.859,36.805-.316,46.131-13.922,9.008-13.136,2.575-30.054-8.428-39.737-3.662-3.223-7.446-6.222-10.89-9.7-4.558-4.61-11.05-11.111-11.3-18.06-.233-6.4,6.151-7.524,11.1-7.813a29.481,29.481,0,0,0,13.64-3.948C579.2,86.572,581.7,75.888,579.924,66.489Z" transform="translate(0 0)" fill="#e39e0f"/>
      <path id="Path_3" data-name="Path 3" d="M550.079,99.551H537.967c-1.34,7.256-6.129,11.058-14.3,11.55v-4.718c6.55,0,9.861-3.591,9.861-11.9v-26.9h4.929V94.622h11.62Z" transform="translate(57.111 73.331)" fill="#323d83"/>
      <path id="Path_4" data-name="Path 4" d="M590.906,107.685H532.452v-4.929H575.27c.07-.846.141-1.692.141-2.535,0-5.424-1.267-9.79-3.872-13.031q-4.544-5.7-13.522-5.7H543.507c2.537-4.578,6.129-10.985,10.777-19.3h5.845l-8.38,14.438h6.267c7.113,0,12.817,2.183,17.044,6.621,4.156,4.367,6.2,10.142,6.2,17.325v2.183h9.65Z" transform="translate(70.371 65.196)" fill="#323d83"/>
      <path id="Path_5" data-name="Path 5" d="M594.327,90.214c0,9.156-5.775,15.987-14.649,15.987h-25v-4.929h13.733a16.722,16.722,0,0,1-3.521-10.988c0-9.155,5.7-15.987,14.86-15.987C588.693,74.3,594.327,80.637,594.327,90.214Zm-5.423-.492c0-7.042-3.17-11.339-8.945-11.339-6.267,0-9.507,4.718-9.507,12.185,0,7.042,3.451,11.55,9.226,11.55C585.8,102.118,588.9,97.962,588.9,89.722Zm-6.621-20.565h-5.07V63.172h5.07Z" transform="translate(103.923 66.68)" fill="#323d83"/>
      <circle id="Ellipse_1" data-name="Ellipse 1" cx="3.13" cy="3.13" r="3.13" transform="translate(510.306 111.558)" fill="#e39e0f"/>
      <circle id="Ellipse_2" data-name="Ellipse 2" cx="3.13" cy="3.13" r="3.13" transform="translate(510.306 125.581)" fill="#e39e0f"/>
    </g>
    <path id="Path_25" data-name="Path 25" d="M1587.73-318.042c-2.865-.165-6.342,9.406-8.815,22.728h14.963a51.42,51.42,0,0,0-1.5-12.09C1591.28-311.85,1589.789-317.924,1587.73-318.042Z" transform="translate(-1189.804 318.044)" fill="#b9b9b9"/>
  </g>
</svg>
