<svg xmlns="http://www.w3.org/2000/svg" width="263" height="208.265" viewBox="0 0 263 208.265">
  <g id="Group_11328" data-name="Group 11328" transform="translate(-485.841 -19.005)">
    <g id="Group_1" data-name="Group 1" transform="translate(527.923 116.983)">
      <path id="Path_1" data-name="Path 1" d="M502.126,160.8h1.926V56.289H717.266V158.872H502.126V160.8h0v1.926H721.118V52.437H500.2V162.724h1.926Z" transform="translate(-500.2 -52.437)" fill="#fff"/>
    </g>
    <text id="FICRI" transform="translate(617.073 215.669)" fill="#fff" font-size="18" font-family="Poppins-Light, Poppins" font-weight="300" letter-spacing="0.7em"><tspan x="0" y="0">FICRI</tspan></text>
    <path id="Path_2" data-name="Path 2" d="M595.7,74.453a22.59,22.59,0,0,1-14.091,17.616c-4.537,1.714-9.522,1.9-14.111,3.473-5.343,1.832-10.764,5.888-13.3,11.051-2.623,5.348-2.236,11.664-.624,17.232a41.809,41.809,0,0,0,5.9,12.288,78.71,78.71,0,0,0,11.667,12.915c7.218,6.691,7.646,21.687,1.486,29.406-7.763,9.727-23.381,8.358-34.186,6.6,0,0-53.971-11.189-28.3-69.77,7.752-17.692,28.908-24.395,43.758-34.391,8.071-5.433,15.445-12.883,17.7-22.349C574.916,44.622,566.569,30.877,558.6,19a44.9,44.9,0,0,1-4.721,44.165c-7.608,10.31-19.213,16.728-29.767,24-29.421,20.263-47.767,52.5-33.137,87.993q.963,2.334,2.049,4.613c8.25,17.341,26.142,29.52,44.827,33.04,17.713,3.338,42.978-.369,53.868-16.256,10.518-15.339,3.007-35.095-9.841-46.4-4.276-3.763-8.7-7.265-12.716-11.33-5.322-5.384-12.9-12.974-13.2-21.089-.273-7.473,7.183-8.786,12.965-9.123A34.425,34.425,0,0,0,584.859,104C594.853,97.9,597.778,85.428,595.7,74.453Z" transform="translate(0 0)" fill="#fff"/>
    <path id="Path_3" data-name="Path 3" d="M554.508,104.914H540.365c-1.565,8.473-7.157,12.912-16.7,13.487v-5.51c7.649,0,11.515-4.194,11.515-13.9V67.577h5.756V99.158h13.569Z" transform="translate(73.033 93.776)" fill="#fff"/>
    <path id="Path_4" data-name="Path 4" d="M600.71,115.316H532.452V109.56h50c.082-.988.164-1.975.164-2.96,0-6.333-1.48-11.432-4.522-15.216q-5.306-6.66-15.79-6.661H545.361c2.963-5.346,7.157-12.827,12.584-22.534h6.825l-9.785,16.86H562.3c8.306,0,14.967,2.55,19.9,7.731,4.853,5.1,7.236,11.843,7.236,20.23v2.55H600.71Z" transform="translate(89.99 83.373)" fill="#fff"/>
    <path id="Path_5" data-name="Path 5" d="M600.977,94.75c0,10.691-6.743,18.668-17.106,18.668h-29.2v-5.756h16.036C568,104.371,566.6,100.1,566.6,94.832c0-10.691,6.661-18.668,17.352-18.668C594.4,76.164,600.977,83.566,600.977,94.75Zm-6.333-.574c0-8.223-3.7-13.241-10.445-13.241-7.318,0-11.1,5.51-11.1,14.228,0,8.223,4.03,13.487,10.773,13.487C591.025,108.65,594.644,103.8,594.644,94.175Zm-7.731-24.014h-5.92v-6.99h5.92Z" transform="translate(132.897 85.271)" fill="#fff"/>
    <circle id="Ellipse_1" data-name="Ellipse 1" cx="3.655" cy="3.655" r="3.655" transform="translate(514.41 127.081)" fill="#fff"/>
    <circle id="Ellipse_2" data-name="Ellipse 2" cx="3.655" cy="3.655" r="3.655" transform="translate(514.41 143.456)" fill="#fff"/>
  </g>
</svg>
