<svg xmlns="http://www.w3.org/2000/svg" width="56.604" height="56.604" viewBox="0 0 56.604 56.604">
  <g id="Group_11008" data-name="Group 11008" transform="translate(0.5 0.5)">
    <path id="download_1_" data-name="download (1)" d="M-918.7,953.5a27.827,27.827,0,0,0-27.8,27.8,27.827,27.827,0,0,0,27.8,27.8,27.827,27.827,0,0,0,27.8-27.8A27.827,27.827,0,0,0-918.7,953.5Z" transform="translate(946.5 -953.5)" fill="#323d83" stroke="#fff" stroke-width="1"/>
    <path id="Path_17110" data-name="Path 17110" d="M297.041,929.252l3.881-3.887q2.2-2.2,4.4-4.4a3.471,3.471,0,0,1,.522-.46,1.149,1.149,0,0,1,1.589,1.573,3.616,3.616,0,0,1-.5.566q-3.739,3.744-7.484,7.481c-.205.2-.438.382-.708.616.2.215.334.369.478.514q3.8,3.805,7.6,7.607c.11.109.221.218.328.33a1.2,1.2,0,0,1,.115,1.754,1.182,1.182,0,0,1-1.752-.1c-1.035-1.021-2.058-2.055-3.086-3.082q-2.405-2.406-4.807-4.814a4.293,4.293,0,0,1-.4-.558c-.267.249-.423.386-.569.532q-3.846,3.843-7.691,7.687a4.105,4.105,0,0,1-.516.467,1.149,1.149,0,0,1-1.581-1.629,4.324,4.324,0,0,1,.434-.468q3.843-3.846,7.688-7.689c.147-.148.287-.3.455-.482-.168-.178-.307-.334-.454-.481q-3.843-3.846-7.687-7.69a3.787,3.787,0,0,1-.464-.518,1.147,1.147,0,0,1,1.573-1.6,3.83,3.83,0,0,1,.563.5q3.827,3.821,7.646,7.648A4.676,4.676,0,0,1,297.041,929.252Z" transform="translate(-268.625 -904.577)" fill="#fff"/>
  </g>
</svg>
