<svg xmlns="http://www.w3.org/2000/svg" width="39.435" height="30.342" viewBox="0 0 39.435 30.342">
  <g id="Group_6016" data-name="Group 6016" transform="translate(-1855.084 -829.498)">
    <path id="Path_19366" data-name="Path 19366" d="M1874.974,885.358h17.035a3.21,3.21,0,0,1,1.346.172,2.234,2.234,0,0,1,.031,4,3.335,3.335,0,0,1-1.449.184h-34.069a6.33,6.33,0,0,1-.841-.022,2.189,2.189,0,0,1-.032-4.31,6.7,6.7,0,0,1,.945-.025Z" transform="translate(-0.093 -42.87)" fill="#e39e0f"/>
    <path id="Path_19367" data-name="Path 19367" d="M1874.953,829.5q8.728,0,17.456,0a2.042,2.042,0,0,1,2.2,2.385,1.87,1.87,0,0,1-1.383,1.8,5.155,5.155,0,0,1-1.353.14q-16.93.011-33.86,0a6.4,6.4,0,0,1-1.047-.06,2.014,2.014,0,0,1-1.74-2.3,1.977,1.977,0,0,1,1.955-1.964c1.471-.031,2.944-.011,4.417-.011Z" transform="translate(-0.105 0)" fill="#e39e0f"/>
    <path id="Path_19368" data-name="Path 19368" d="M1874.75,945.652c-5.784,0-11.568-.011-17.352.01a2.043,2.043,0,0,1-2.174-1.417,2.1,2.1,0,0,1,1.422-2.815,5.165,5.165,0,0,1,1.147-.107q17.036-.008,34.073,0c1.682,0,2.535.634,2.643,1.935a2.042,2.042,0,0,1-2.092,2.391c-2.664.019-5.328.005-7.992.006Z" transform="translate(0 -85.822)" fill="#e39e0f"/>
  </g>
</svg>
