<svg id="time" xmlns="http://www.w3.org/2000/svg" xmlns:xlink="http://www.w3.org/1999/xlink" width="20.667" height="21.317" viewBox="0 0 20.667 21.317">
  <defs>
    <clipPath id="clip-path">
      <path id="Combined_Shape" data-name="Combined Shape" d="M0,10.658A10.512,10.512,0,0,1,10.333,0,10.512,10.512,0,0,1,20.667,10.658,10.512,10.512,0,0,1,10.333,21.317,10.512,10.512,0,0,1,0,10.658Zm2.067,0a8.409,8.409,0,0,0,8.266,8.527A8.41,8.41,0,0,0,18.6,10.658a8.409,8.409,0,0,0-8.267-8.526A8.409,8.409,0,0,0,2.067,10.658ZM7.233,12.79V5.33H9.3v5.328h5.167V12.79Z" fill="#f94f42"/>
    </clipPath>
  </defs>
  <g id="Group_7" data-name="Group 7">
    <path id="Combined_Shape-2" data-name="Combined Shape" d="M0,10.658A10.512,10.512,0,0,1,10.333,0,10.512,10.512,0,0,1,20.667,10.658,10.512,10.512,0,0,1,10.333,21.317,10.512,10.512,0,0,1,0,10.658Zm2.067,0a8.409,8.409,0,0,0,8.266,8.527A8.41,8.41,0,0,0,18.6,10.658a8.409,8.409,0,0,0-8.267-8.526A8.409,8.409,0,0,0,2.067,10.658ZM7.233,12.79V5.33H9.3v5.328h5.167V12.79Z" fill="#f94f42"/>
  </g>
</svg>
