<svg xmlns="http://www.w3.org/2000/svg" width="14.061" height="19.787" viewBox="0 0 14.061 19.787">
  <g id="Group_6523" data-name="Group 6523" transform="translate(-70.178 -188.416)">
    <path id="Path_20732" data-name="Path 20732" d="M77.208,188.666a6.782,6.782,0,0,0-5.769,10.346l5.383,8.674a.565.565,0,0,0,.48.267h0a.564.564,0,0,0,.48-.275l5.245-8.758a6.782,6.782,0,0,0-5.824-10.254Zm4.854,9.674L77.294,206.3,72.4,198.417a5.654,5.654,0,1,1,9.662-.076Z" fill="#f94f42" stroke="#f94f42" stroke-width="0.5"/>
    <path id="Path_20733" data-name="Path 20733" d="M81.313,196.161a3.39,3.39,0,1,0,3.39,3.39A3.394,3.394,0,0,0,81.313,196.161Zm0,5.658a2.268,2.268,0,1,1,2.264-2.268A2.269,2.269,0,0,1,81.313,201.819Z" transform="translate(-4.105 -4.105)" fill="#f94f42" stroke="#f94f42" stroke-width="0.5"/>
  </g>
</svg>
