<svg xmlns="http://www.w3.org/2000/svg" width="22.891" height="21.206" viewBox="0 0 22.891 21.206">
  <g id="Group_8774" data-name="Group 8774" transform="translate(-1281.5 -4450.406)">
    <path id="Subtraction_1" data-name="Subtraction 1" d="M-1998.071,59.706h-5.91a2.022,2.022,0,0,1-2.02-2.02,7.7,7.7,0,0,1,7.695-7.7,7.648,7.648,0,0,1,3,.607A7.685,7.685,0,0,0-2000,57.686a2.015,2.015,0,0,0,1.929,2.018Zm-.233-11.133a4.138,4.138,0,0,1-3.831-2.555,4.154,4.154,0,0,1,2.234-5.423,4.126,4.126,0,0,1,1.593-.32,4.173,4.173,0,0,1,3,1.283,4.149,4.149,0,0,0-.829,4.46,4.129,4.129,0,0,0,.829,1.272,4.117,4.117,0,0,1-1.406.964A4.126,4.126,0,0,1-1998.3,48.573Z" transform="translate(3288 4411.405)" fill="#f94f42" stroke="rgba(0,0,0,0)" stroke-miterlimit="10" stroke-width="1"/>
    <g id="Group_8771" data-name="Group 8771" transform="translate(715.697 4356.557)">
      <g id="Group_8761" data-name="Group 8761" transform="translate(575.574 93.849)">
        <circle id="Ellipse_226" data-name="Ellipse 226" cx="4.148" cy="4.148" r="4.148" transform="translate(0 3.189) rotate(-22.61)" fill="#f94f42"/>
      </g>
      <g id="Group_8762" data-name="Group 8762" transform="translate(573.303 104.84)">
        <path id="Path_24313" data-name="Path 24313" d="M581,113.864h0a7.7,7.7,0,0,0-7.7,7.7h0a2.019,2.019,0,0,0,2.019,2.019h11.352a2.019,2.019,0,0,0,2.02-2.019h0A7.7,7.7,0,0,0,581,113.864Z" transform="translate(-573.303 -113.864)" fill="#f94f42"/>
      </g>
    </g>
  </g>
</svg>
