<svg xmlns="http://www.w3.org/2000/svg" width="30" height="30" viewBox="0 0 30 30">
  <g id="Group_11368" data-name="Group 11368" transform="translate(-1390 -11.829)">
    <circle id="Ellipse_136" data-name="Ellipse 136" cx="15" cy="15" r="15" transform="translate(1390 11.829)" fill="#e39e0f"/>
    <path id="download_1_" data-name="download (1)" d="M25.7,24.4l-2.793-2.773A7.011,7.011,0,1,0,17.4,24.3a7.47,7.47,0,0,0,2.332-.4A6.38,6.38,0,0,0,21.7,22.809l2.773,2.812a.837.837,0,0,0,.612.249.921.921,0,0,0,.612-.249A.854.854,0,0,0,25.7,24.4Zm-3.022-7.1a5.29,5.29,0,1,1-1.549-3.73A5.237,5.237,0,0,1,22.679,17.3Z" transform="translate(1386.82 8.915)" fill="#fff"/>
  </g>
</svg>
