<svg xmlns="http://www.w3.org/2000/svg" xmlns:xlink="http://www.w3.org/1999/xlink" width="1011" height="462" viewBox="0 0 1011 462">
  <defs>
    <clipPath id="clip-path">
      <rect id="Rectangle_3387" data-name="Rectangle 3387" width="1011" height="462" transform="translate(108 1459)" fill="#fff" stroke="#707070" stroke-width="1"/>
    </clipPath>
    <clipPath id="clip-path-2">
      <path id="Path_20104" data-name="Path 20104" d="M1245.136,522.392c-34.63-11.3-152.807-48.279-152.807-48.279l-61,10.234-13.281,1.858a80.455,80.455,0,0,0-14.2,3.346,65.724,65.724,0,0,0-12.781,5.485,80.477,80.477,0,0,0-18,13.231c-9.457,8.1-12.325,12.723-12.325,12.723s-56.21,46.874-70.268,192.7c-.17,1.764,0,21.878,0,21.878H963.7V736h331.219V575.41S1279.766,533.688,1245.136,522.392Z" transform="translate(-890.393 -474.113)" fill="none"/>
    </clipPath>
    <clipPath id="clip-path-3">
      <path id="Path_20109" data-name="Path 20109" d="M0,0H32.591L54.069-4.822l57.153-37.131,9.465,13.469,3.276,23.662,17.11,199.491L-64.242,222.7Z" transform="translate(128.785 615.766)" fill="#d64444"/>
    </clipPath>
  </defs>
  <g id="Mask_Group_24" data-name="Mask Group 24" transform="translate(-108 -1459)" clip-path="url(#clip-path)">
    <g id="Group_6124" data-name="Group 6124" transform="translate(-4247.625 -141.848)">
      <g id="Group_6058" data-name="Group 6058" transform="translate(5058.522 1647.948)">
        <path id="Path_20025" data-name="Path 20025" d="M605.8,697.925c-4.336-23.674-13.47-206.639-23.26-228.626-3.547-7.969-7.631-16.032-14.352-21.59-7.579-6.267-23.308-7.087-32.749-9.836s-20.2-8.82-25.954-16.791l9.495-36.557a3.778,3.778,0,0,1,4.053-3.61c10.357-1.211,20.685-3.095,31.042-4.306a11.175,11.175,0,0,0,9.962-10.588c.072-4.563-4.827-10.378-2.187-14.1,1.84-2.6,3.773-5.557,3.273-8.7-.3-1.856-2.713-1.962-3.034-3.814-.426-2.449,1.436-5.54.778-7.938-.478-1.745-1.771-3.127-2.707-4.675-.865-1.431-1.829-4.335-1.155-5.938a1.283,1.283,0,0,1,.576-.579,36.447,36.447,0,0,0,5.477-3.3,16.872,16.872,0,0,0,3.488-2.915c2.717-3.7-1.233-7.178-4.095-9.6-4.365-3.695-9.721-7.052-13.269-11.592-6.229-7.973-8.816-16.393-11.636-26.11l-.045-.157c-4.161-14.192-9.6-27.088-24.527-33.94-5.261,30.184-22.6,59.847-46.843,78.586-3.048-4.865-10.43-5.842-15.634-3.419s-8.449,8.117-8.788,13.848,1.92,11.4,5.375,15.985,8.035,8.2,12.8,11.4c-6.528,27.959-20,55.826-37.073,78.911-20.913,28.28-63.311,38.6-84.884,66.379-15.081,19.422-17.232,45.852-15.76,70.4s-5.675,130.062-9.846,154.3C406.842,704.42,517.326,728.669,605.8,697.925Z" transform="translate(-314.325 -232.667)" fill="#f29c59"/>
        <path id="Path_20026" data-name="Path 20026" d="M476,347.3a5.043,5.043,0,0,0-1.385,2.769l-9.415,36.25a87.244,87.244,0,0,1-23.8-20.4c-11.037-13.668-16.205-30.6-17.478-48.12C438.975,335.477,451.748,343.3,476,347.3Z" transform="translate(-269.962 -198.21)" fill="#dd7f40"/>
        <path id="Path_20027" data-name="Path 20027" d="M582.543,410.025c-3.547-7.969-7.631-16.032-14.352-21.59-7.084-5.859-21.29-6.958-30.824-9.322a101.052,101.052,0,0,1,.146,22.949c-1.53,12.2-6.729,24.444-16.51,31.895-7.42,5.653-16.96,8.12-26.286,7.959-17.377-.3-33.455-9.124-47.58-19.252-12.655-9.075-24.641-23.589-35.855-39.443-20.431,13.6-56.89,33.236-71.35,51.856-15.081,19.422-17.232,45.852-15.76,70.4s-5.675,130.062-9.846,154.3c92.517-14.626,203,9.622,291.477-21.122C601.466,614.976,592.334,432.012,582.543,410.025Z" transform="translate(-314.325 -173.393)" fill="#f06161"/>
        <path id="Path_20028" data-name="Path 20028" d="M472.6,316.01c10.7,4.471,17.357,6.463,25.6,5.531a10.415,10.415,0,0,0,3.7-1.055,3.9,3.9,0,0,0,1.645-4.249c-.406-1.662-2.408-4.064-4.016-4.307a14.2,14.2,0,0,0,2.006-4.04c.339-1.394.6-3.437-.6-4.7-1.453-1.533-3.28-1.979-4.7-1.264-2.849,1.44-4.884,4.018-6.621,6.619C485.927,314.088,478.787,315.516,472.6,316.01Z" transform="translate(-250.262 -204.769)" fill="#f05b5a"/>
        <path id="Path_20029" data-name="Path 20029" d="M461.753,288.687c-3.5-2.835-4.734-3.834-8.229-6.668,9.372,1.562,21.153-2.489,28.616-11.308C480.783,280.109,470.805,286.12,461.753,288.687Z" transform="translate(-257.984 -217.269)" fill="#614a49"/>
        <path id="Path_20030" data-name="Path 20030" d="M482.777,259.807a56.715,56.715,0,0,0-29.727,6.652c-3.437,1.846-10.946,9.714-12.922,12.984,13.93-9.941,12.683-8.035,44.505-13.41A5.9,5.9,0,0,0,482.777,259.807Z" transform="translate(-263.406 -221.716)" fill="#614a49"/>
        <circle id="Ellipse_138" data-name="Ellipse 138" cx="12.24" cy="12.24" r="12.24" transform="matrix(0.229, -0.973, 0.973, 0.229, 131.44, 118.906)" fill="#fae6d8"/>
      </g>
      <g id="Group_6112" data-name="Group 6112" transform="translate(4708.413 1616.508)">
        <path id="Path_20043" data-name="Path 20043" d="M71.563,459.629c17.024,80.511,31.253,138.022,49.227,210.8.492,1.988,6.51,32,7.913,32.042l191.063,5.006s73.307-260.753,21.244-344.9c-10.279-16.611-61.126-29.555-83.793-30.875l-101.093,6.376c-21.529,4.667-25.87,4.939-47.259,9.644a57.38,57.38,0,0,0-36.14,26.682C59.5,397.359,66.415,435.283,71.563,459.629Z" transform="translate(-65.093 -161.14)" fill="#fae6d8"/>
        <path id="Path_20044" data-name="Path 20044" d="M271.7,210.286a25.605,25.605,0,0,1,2.028,3.058,41.78,41.78,0,0,1,5.3,19.439c.135,6.483-1.264,12.143-.06,18.651,1.423,7.7,5.546,20.529,9.833,27.713,2.522,3.806,9.507,9.728,6.564,14.961-1.438,2.557-3.7,2.977-7.171,3.377a10.987,10.987,0,0,0-4.335,1.267,5.472,5.472,0,0,0-1.534,2.068c-.691,1.431-.4,2.868.225,4.964-3.765.7-7.233,1.162-8.6,4.022-4.456,4.47-1.457,6.739,3.284,10.975a6.089,6.089,0,0,0-3.288,1.566c-.815,4.1.214,8.275.625,12.432s-.117,8.849-3.362,11.613c-3.56,3.033-9.061,2.819-13.753,2.225a139.42,139.42,0,0,0-14.434-1.381c-8.157-.5-17.571,2.134-19.956,9.538-1,3.1-3.591,19.29,8.1,23.8a6.016,6.016,0,0,0,1.152.28c3.881,10.17,5.507,23.051,1.11,32.787-5.342,11.832-18.922,18.9-32.291,19.505s-26.435-4.332-37.845-11.078a124.945,124.945,0,0,1-36.7-33.942c15.118-4.591,30.57-9.512,43.974-17.877s24.853-19.193,28.806-34.491c5.018-19.418,6.24-37.468.944-56.3a26.877,26.877,0,0,1-16.212-7.853c-4.131-4.426-6.246-10.706-4.964-16.531A15.834,15.834,0,0,1,191.4,243.064a13.382,13.382,0,0,1,14.584,8.143l.055.018a7.374,7.374,0,0,0,4.557.2c6.573-2.139,9.478-7.681,13.039-12.589C234.339,224.078,253.48,210.98,271.7,210.286Z" transform="translate(-40.199 -210.286)" fill="#f9bfb4"/>
        <path id="Path_20045" data-name="Path 20045" d="M181.572,283.7c-4.2,40.075,13.671,57.8,23.164,64.28-6.456-6.368-4.511-18.3-3.666-20.924,2.385-7.4,11.8-10.04,19.956-9.538a139.438,139.438,0,0,1,14.434,1.381C211.326,315.655,181.572,283.7,181.572,283.7Z" transform="translate(-18.202 -180.57)" fill="#e59891"/>
        <path id="Path_20046" data-name="Path 20046" d="M234.406,278.737c3.034-.59,4.8-2.01,8.007-1.788,1.419.1,2.621,1.28,3.037,3.126.343,1.521-.8,2.975-1.7,3.894a12.689,12.689,0,0,1-3.4,2.191c1.127.924,1.566,3.692,1.118,5.158a3.5,3.5,0,0,1-3.215,2.519,6.553,6.553,0,0,1-2.883-1.1c-5.112-2.737-12.088-9.639-14.446-14.114C225.216,279.917,230.013,279.591,234.406,278.737Z" transform="translate(-2.017 -183.314)" fill="#f05b5a"/>
        <circle id="Ellipse_140" data-name="Ellipse 140" cx="10.106" cy="10.106" r="10.106" transform="translate(146.269 61.129)" fill="#f89c1c"/>
        <path id="Path_20047" data-name="Path 20047" d="M210.152,243.68A63.721,63.721,0,0,0,234.59,238.6a15.023,15.023,0,0,1-5.348,5.9c.693,2.843-2.211,6.414-4.992,7.32a9.886,9.886,0,0,1-8.333-1.57C213.481,248.628,211.978,245.964,210.152,243.68Z" transform="translate(-6.38 -198.826)" fill="#9f6b62"/>
        <path id="Path_20048" data-name="Path 20048" d="M242.227,232.84a49.91,49.91,0,0,0-27.7-5.622c-3.6.32-12.875,4.483-15.757,6.66,15.493-3.522,13.733-2.288,42.744,5.3A6.091,6.091,0,0,0,242.227,232.84Z" transform="translate(-10.988 -203.51)" fill="#9f6b62"/>
        <g id="Group_6067" data-name="Group 6067" transform="translate(60.025 193.131)">
          <path id="Path_20049" data-name="Path 20049" d="M110.915,354.171c4.119,0,4.126-6.4,0-6.4s-4.126,6.4,0,6.4Z" transform="translate(-107.823 -347.77)" fill="#a27c7e"/>
        </g>
        <g id="Group_6068" data-name="Group 6068" transform="translate(87.13 250.876)">
          <path id="Path_20050" data-name="Path 20050" d="M130.21,395.278c4.119,0,4.126-6.4,0-6.4s-4.126,6.4,0,6.4Z" transform="translate(-127.118 -388.877)" fill="#a27c7e"/>
        </g>
        <g id="Group_6069" data-name="Group 6069" transform="translate(142.518 240.27)">
          <path id="Path_20051" data-name="Path 20051" d="M169.639,387.727c4.119,0,4.126-6.4,0-6.4s-4.126,6.4,0,6.4Z" transform="translate(-166.547 -381.327)" fill="#a27c7e"/>
        </g>
        <g id="Group_6070" data-name="Group 6070" transform="translate(58.847 296.837)">
          <path id="Path_20052" data-name="Path 20052" d="M110.076,428c4.119,0,4.126-6.4,0-6.4s-4.126,6.4,0,6.4Z" transform="translate(-106.984 -421.595)" fill="#a27c7e"/>
        </g>
        <g id="Group_6071" data-name="Group 6071" transform="translate(129.555 305.085)">
          <path id="Path_20053" data-name="Path 20053" d="M160.411,433.868c4.119,0,4.126-6.4,0-6.4s-4.126,6.4,0,6.4Z" transform="translate(-157.319 -427.467)" fill="#a27c7e"/>
        </g>
        <g id="Group_6072" data-name="Group 6072" transform="translate(36.456 247.34)">
          <path id="Path_20054" data-name="Path 20054" d="M94.137,392.761c4.119,0,4.126-6.4,0-6.4s-4.126,6.4,0,6.4Z" transform="translate(-91.045 -386.36)" fill="#a27c7e"/>
        </g>
        <g id="Group_6073" data-name="Group 6073" transform="translate(164.91 273.266)">
          <path id="Path_20055" data-name="Path 20055" d="M185.579,411.217c4.119,0,4.126-6.4,0-6.4s-4.126,6.4,0,6.4Z" transform="translate(-182.487 -404.816)" fill="#a27c7e"/>
        </g>
        <g id="Group_6074" data-name="Group 6074" transform="translate(102.45 332.19)">
          <path id="Path_20056" data-name="Path 20056" d="M141.116,453.163c4.119,0,4.126-6.4,0-6.4s-4.126,6.4,0,6.4Z" transform="translate(-138.024 -446.762)" fill="#a27c7e"/>
        </g>
        <g id="Group_6075" data-name="Group 6075" transform="translate(72.988 361.652)">
          <path id="Path_20057" data-name="Path 20057" d="M120.143,474.136c4.119,0,4.126-6.4,0-6.4s-4.126,6.4,0,6.4Z" transform="translate(-117.051 -467.735)" fill="#a27c7e"/>
        </g>
        <g id="Group_6076" data-name="Group 6076" transform="translate(120.127 384.042)">
          <path id="Path_20058" data-name="Path 20058" d="M153.7,490.075c4.119,0,4.126-6.4,0-6.4s-4.126,6.4,0,6.4Z" transform="translate(-150.608 -483.674)" fill="#a27c7e"/>
        </g>
        <g id="Group_6077" data-name="Group 6077" transform="translate(37.635 323.941)">
          <path id="Path_20059" data-name="Path 20059" d="M94.976,447.29c4.119,0,4.126-6.4,0-6.4s-4.126,6.4,0,6.4Z" transform="translate(-91.884 -440.89)" fill="#a27c7e"/>
        </g>
        <g id="Group_6078" data-name="Group 6078" transform="translate(15.243 214.343)">
          <path id="Path_20060" data-name="Path 20060" d="M79.036,369.271c4.119,0,4.126-6.4,0-6.4s-4.126,6.4,0,6.4Z" transform="translate(-75.944 -362.87)" fill="#a27c7e"/>
        </g>
        <g id="Group_6079" data-name="Group 6079" transform="translate(121.306 272.088)">
          <path id="Path_20061" data-name="Path 20061" d="M154.539,410.378c4.119,0,4.126-6.4,0-6.4s-4.126,6.4,0,6.4Z" transform="translate(-151.447 -403.977)" fill="#a27c7e"/>
        </g>
        <g id="Group_6080" data-name="Group 6080" transform="translate(38.813 381.686)">
          <path id="Path_20062" data-name="Path 20062" d="M95.815,488.4c4.119,0,4.126-6.4,0-6.4s-4.126,6.4,0,6.4Z" transform="translate(-92.723 -481.997)" fill="#a27c7e"/>
        </g>
        <g id="Group_6081" data-name="Group 6081" transform="translate(10.53 280.338)">
          <path id="Path_20063" data-name="Path 20063" d="M75.681,416.251c4.119,0,4.126-6.4,0-6.4s-4.126,6.4,0,6.4Z" transform="translate(-72.589 -409.85)" fill="#a27c7e"/>
        </g>
        <g id="Group_6082" data-name="Group 6082" transform="translate(83.594 406.434)">
          <path id="Path_20064" data-name="Path 20064" d="M127.693,506.015c4.12,0,4.126-6.4,0-6.4s-4.126,6.4,0,6.4Z" transform="translate(-124.601 -499.614)" fill="#a27c7e"/>
        </g>
        <g id="Group_6083" data-name="Group 6083" transform="translate(154.302 415.861)">
          <path id="Path_20065" data-name="Path 20065" d="M178.028,512.726c4.12,0,4.126-6.4,0-6.4s-4.126,6.4,0,6.4Z" transform="translate(-174.936 -506.325)" fill="#a27c7e"/>
        </g>
        <g id="Group_6084" data-name="Group 6084" transform="translate(149.589 347.51)">
          <path id="Path_20066" data-name="Path 20066" d="M174.673,464.069c4.119,0,4.126-6.4,0-6.4s-4.126,6.4,0,6.4Z" transform="translate(-171.581 -457.668)" fill="#a27c7e"/>
        </g>
        <g id="Group_6085" data-name="Group 6085" transform="translate(179.051 375.793)">
          <path id="Path_20067" data-name="Path 20067" d="M195.646,484.2c4.119,0,4.126-6.4,0-6.4s-4.126,6.4,0,6.4Z" transform="translate(-192.554 -477.802)" fill="#a27c7e"/>
        </g>
        <g id="Group_6086" data-name="Group 6086" transform="translate(232.082 418.218)">
          <path id="Path_20068" data-name="Path 20068" d="M233.4,514.4c4.119,0,4.126-6.4,0-6.4s-4.126,6.4,0,6.4Z" transform="translate(-230.305 -508.003)" fill="#a27c7e"/>
        </g>
        <g id="Group_6087" data-name="Group 6087" transform="translate(200.263 399.362)">
          <path id="Path_20069" data-name="Path 20069" d="M210.746,500.981c4.119,0,4.126-6.4,0-6.4s-4.126,6.4,0,6.4Z" transform="translate(-207.654 -494.58)" fill="#a27c7e"/>
        </g>
        <g id="Group_6088" data-name="Group 6088" transform="translate(241.509 369.901)">
          <path id="Path_20070" data-name="Path 20070" d="M240.108,480.008c4.119,0,4.126-6.4,0-6.4s-4.126,6.4,0,6.4Z" transform="translate(-237.016 -473.607)" fill="#a27c7e"/>
        </g>
        <g id="Group_6089" data-name="Group 6089" transform="translate(201.442 339.262)">
          <path id="Path_20071" data-name="Path 20071" d="M211.585,458.2c4.119,0,4.126-6.4,0-6.4s-4.126,6.4,0,6.4Z" transform="translate(-208.493 -451.796)" fill="#a27c7e"/>
        </g>
        <g id="Group_6090" data-name="Group 6090" transform="translate(217.94 373.436)">
          <path id="Path_20072" data-name="Path 20072" d="M223.33,482.525c4.119,0,4.126-6.4,0-6.4s-4.126,6.4,0,6.4Z" transform="translate(-220.238 -476.124)" fill="#a27c7e"/>
        </g>
        <g id="Group_6091" data-name="Group 6091" transform="translate(270.971 402.898)">
          <path id="Path_20073" data-name="Path 20073" d="M261.081,503.5c4.119,0,4.126-6.4,0-6.4s-4.126,6.4,0,6.4Z" transform="translate(-257.989 -497.097)" fill="#a27c7e"/>
        </g>
        <g id="Group_6092" data-name="Group 6092" transform="translate(276.864 342.796)">
          <path id="Path_20074" data-name="Path 20074" d="M265.276,460.713c4.119,0,4.126-6.4,0-6.4s-4.126,6.4,0,6.4Z" transform="translate(-262.184 -454.312)" fill="#a27c7e"/>
        </g>
        <g id="Group_6093" data-name="Group 6093" transform="translate(232.082 325.12)">
          <path id="Path_20075" data-name="Path 20075" d="M233.4,448.129c4.119,0,4.126-6.4,0-6.4s-4.126,6.4,0,6.4Z" transform="translate(-230.305 -441.729)" fill="#a27c7e"/>
        </g>
        <g id="Group_6094" data-name="Group 6094" transform="translate(94.201 293.301)">
          <path id="Path_20076" data-name="Path 20076" d="M135.244,425.479c4.119,0,4.126-6.4,0-6.4s-4.126,6.4,0,6.4Z" transform="translate(-132.152 -419.078)" fill="#a27c7e"/>
        </g>
        <g id="Group_6095" data-name="Group 6095" transform="translate(175.515 313.334)">
          <path id="Path_20077" data-name="Path 20077" d="M193.129,439.74c4.119,0,4.126-6.4,0-6.4s-4.126,6.4,0,6.4Z" transform="translate(-190.037 -433.339)" fill="#a27c7e"/>
        </g>
        <g id="Group_6096" data-name="Group 6096" transform="translate(210.869 290.099)">
          <path id="Path_20078" data-name="Path 20078" d="M218.3,423.2c4.12,0,4.126-6.4,0-6.4s-4.126,6.4,0,6.4Z" transform="translate(-215.204 -416.799)" fill="#a27c7e"/>
        </g>
        <g id="Group_6097" data-name="Group 6097" transform="translate(252.116 295.658)">
          <path id="Path_20079" data-name="Path 20079" d="M247.659,427.156c4.119,0,4.126-6.4,0-6.4s-4.126,6.4,0,6.4Z" transform="translate(-244.567 -420.756)" fill="#a27c7e"/>
        </g>
        <g id="Group_6098" data-name="Group 6098" transform="translate(273.328 248.519)">
          <path id="Path_20080" data-name="Path 20080" d="M262.759,393.6c4.119,0,4.126-6.4,0-6.4s-4.126,6.4,0,6.4Z" transform="translate(-259.667 -387.199)" fill="#a27c7e"/>
        </g>
        <g id="Group_6099" data-name="Group 6099" transform="translate(192.014 254.412)">
          <path id="Path_20081" data-name="Path 20081" d="M204.874,397.794c4.119,0,4.126-6.4,0-6.4s-4.126,6.4,0,6.4Z" transform="translate(-201.782 -391.394)" fill="#a27c7e"/>
        </g>
        <g id="Group_6100" data-name="Group 6100" transform="translate(227.368 265.352)">
          <path id="Path_20082" data-name="Path 20082" d="M230.041,405.583c4.119,0,4.126-6.4,0-6.4s-4.126,6.4,0,6.4Z" transform="translate(-226.949 -399.182)" fill="#a27c7e"/>
        </g>
        <g id="Group_6101" data-name="Group 6101" transform="translate(278.043 285.051)">
          <path id="Path_20083" data-name="Path 20083" d="M266.115,419.606c4.119,0,4.126-6.4,0-6.4s-4.126,6.4,0,6.4Z" transform="translate(-263.023 -413.205)" fill="#a27c7e"/>
        </g>
        <g id="Group_6102" data-name="Group 6102" transform="translate(221.476 201.38)">
          <path id="Path_20084" data-name="Path 20084" d="M225.847,360.043c4.119,0,4.126-6.4,0-6.4s-4.126,6.4,0,6.4Z" transform="translate(-222.755 -353.642)" fill="#a27c7e"/>
        </g>
        <g id="Group_6103" data-name="Group 6103" transform="translate(78.881 220.236)">
          <path id="Path_20085" data-name="Path 20085" d="M124.338,373.466c4.119,0,4.126-6.4,0-6.4s-4.126,6.4,0,6.4Z" transform="translate(-121.246 -367.065)" fill="#a27c7e"/>
        </g>
        <g id="Group_6104" data-name="Group 6104" transform="translate(58.847 268.553)">
          <path id="Path_20086" data-name="Path 20086" d="M110.076,407.861c4.119,0,4.126-6.4,0-6.4s-4.126,6.4,0,6.4Z" transform="translate(-106.984 -401.461)" fill="#a27c7e"/>
        </g>
        <g id="Group_6105" data-name="Group 6105" transform="translate(113.056 217.878)">
          <path id="Path_20087" data-name="Path 20087" d="M148.666,371.788c4.119,0,4.126-6.4,0-6.4s-4.126,6.4,0,6.4Z" transform="translate(-145.574 -365.387)" fill="#a27c7e"/>
        </g>
        <g id="Group_6106" data-name="Group 6106" transform="translate(252.116 195.822)">
          <path id="Path_20088" data-name="Path 20088" d="M247.659,356.087c4.119,0,4.126-6.4,0-6.4s-4.126,6.4,0,6.4Z" transform="translate(-244.567 -349.686)" fill="#a27c7e"/>
        </g>
        <g id="Group_6107" data-name="Group 6107" transform="translate(187.3 227.306)">
          <path id="Path_20089" data-name="Path 20089" d="M201.518,378.5c4.119,0,4.126-6.4,0-6.4s-4.126,6.4,0,6.4Z" transform="translate(-198.426 -372.098)" fill="#a27c7e"/>
        </g>
        <g id="Group_6108" data-name="Group 6108" transform="translate(212.047 178.989)">
          <path id="Path_20090" data-name="Path 20090" d="M219.135,344.1c4.119,0,4.126-6.4,0-6.4s-4.126,6.4,0,6.4Z" transform="translate(-216.043 -337.703)" fill="#a27c7e"/>
        </g>
        <g id="Group_6109" data-name="Group 6109" transform="translate(235.618 235.221)">
          <path id="Path_20091" data-name="Path 20091" d="M235.914,384.133c4.119,0,4.126-6.4,0-6.4s-4.126,6.4,0,6.4Z" transform="translate(-232.822 -377.733)" fill="#a27c7e"/>
        </g>
        <g id="Group_6110" data-name="Group 6110" transform="translate(260.365 221.08)">
          <path id="Path_20092" data-name="Path 20092" d="M253.531,374.066c4.119,0,4.126-6.4,0-6.4s-4.126,6.4,0,6.4Z" transform="translate(-250.439 -367.666)" fill="#a27c7e"/>
        </g>
        <g id="Group_6111" data-name="Group 6111" transform="translate(57.668 418.218)">
          <path id="Path_20093" data-name="Path 20093" d="M109.237,514.4c4.119,0,4.126-6.4,0-6.4s-4.126,6.4,0,6.4Z" transform="translate(-106.145 -508.003)" fill="#a27c7e"/>
        </g>
        <path id="Path_20094" data-name="Path 20094" d="M147.88,579.993,131.854,417.6l58.763,162.4Z" transform="translate(-38.071 -126.377)" fill="#cdc2bb" opacity="0.44" style="mix-blend-mode: multiply;isolation: isolate"/>
      </g>
      <g id="Group_6119" data-name="Group 6119" transform="translate(4379.25 1601.152)">
        <g id="Group_6114" data-name="Group 6114" transform="translate(10.867 208.972)">
          <path id="Path_20103" data-name="Path 20103" d="M2430.991,1545.982s-23.164-1.932-42.895,12.161-24.965,22.549-24.965,22.549-56.21,46.875-70.269,192.7c-.17,1.764,0,21.877,0,21.877h73.774" transform="translate(-2292.787 -1533.815)" fill="#cd3b3a"/>
          <path id="Path_20031" data-name="Path 20031" d="M86.249,326.068,25.243,336.3,11.963,338.16A80.485,80.485,0,0,0-42.38,371.089h0V587.954H288.839V427.365s-15.153-41.723-49.783-53.018S86.249,326.068,86.249,326.068Z" transform="translate(115.685 -326.068)" fill="#cd3b3a"/>
        </g>
        <path id="Path_20037" data-name="Path 20037" d="M105.664,326.068,35.45,336.3,20.165,338.16C-5,341.22-27.612,353.123-42.38,371.089h0V587.954H338.833V427.365s-17.44-41.723-57.3-53.018S105.664,326.068,105.664,326.068Z" transform="translate(76.558 -117.096)" fill="none"/>
        <path id="Path_20038" data-name="Path 20038" d="M154.772,365.672c-13.209-30.178-21.29-63.158-25.977-95.763a18.5,18.5,0,0,0-5.47-34.648c-7.58-1.283-15.315,4.6-18.944,11.378-9.526-6.133-15.308-16.593-19.835-26.978s-8.306-21.326-15.343-30.2-17.137-13.9-28.228-11.589c-9.245,1.923-16.96,14.854-18.467,24.176-1.454,8.986,4.595,24.858,4.365,32.233-.294,9.437-.614,11.88-7.452,20.65-2.443,3.134-8.785,8.275-8.974,12.244-.145,3.047,3.211,5.113,5.785,6.751a19.515,19.515,0,0,0,7.705,3.112l.149.177c.024,1.29.039,2.53.049,3.731a6.554,6.554,0,0,1-1.575,4.48l-.022.024c-1.032,1.127-2.44,2.037-2.883,3.5a29.129,29.129,0,0,0,4.549,1.634c-.75,7.1-1.364,10.163,3.73,15.112,3.911,3.8,2.718,18.288,6.959,21.716,5.13,4.148,12.512,4.245,18.893,2.565s12.261-4.889,18.575-6.8c7.872,10.97,7.291,27.07-1.867,36.993-6.226,6.746-15.466,13.9-23.239,18.789C36.737,385.559,22.961,390.6,6.421,396.513c-5.119,17.708-1.467,38.22,8.735,53.574a64.648,64.648,0,0,0,45.667,28.025c27.644,3.237,53.813-11.561,77.936-25.447s56.127-20.58,83.5-15.542C191.3,425.868,167.98,395.848,154.772,365.672Z" transform="translate(145.374 -177.307)" fill="#c6664f"/>
        <path id="Path_20039" data-name="Path 20039" d="M101.541,249.986C74.569,283.109,52.7,293.752,52.7,293.752a29.922,29.922,0,0,1,5.467,16.555C96.221,288.518,101.541,249.986,101.541,249.986Z" transform="translate(165.036 -147.89)" fill="#bc5642"/>
        <path id="Path_20040" data-name="Path 20040" d="M38.6,258.339c-2.811,4.782-9.347,11.943-13.934,14.579a6.221,6.221,0,0,1-3.214,1.062,3.834,3.834,0,0,1-3.4-2.923c-.417-1.63.205-4.638,1.488-5.6a13.984,13.984,0,0,1-3.61-2.574c-.938-1.052-2.113-2.7-1.66-4.352.551-2,1.927-3.237,3.488-3.272,3.52-.08,3.328,1.361,6.869,2.819a16.335,16.335,0,0,0,7.015,1.458C34.74,259.359,37.173,258.484,38.6,258.339Z" transform="translate(149.442 -145.755)" fill="#ce3d3d"/>
        <circle id="Ellipse_139" data-name="Ellipse 139" cx="13.559" cy="13.559" r="13.559" transform="translate(255.799 82.613)" fill="#fae6d8"/>
        <path id="Path_20041" data-name="Path 20041" d="M21.923,210.138a49.914,49.914,0,0,1,26.912-8.645c3.613-.079,13.292,3.034,16.4,4.88-15.788-1.79-13.9-.76-41.9,9.988A6.088,6.088,0,0,1,21.923,210.138Z" transform="translate(152.455 -167.518)" fill="#764c4a"/>
        <path id="Path_20042" data-name="Path 20042" d="M47.437,221.475a29.722,29.722,0,0,1-9.9,5.9,6.329,6.329,0,0,1-3.8.437c-1.992-.565-3.064-2.7-3.669-4.678s-1.061-4.159-2.6-5.545A103.739,103.739,0,0,1,47.437,221.475Z" transform="translate(154.826 -161.001)" fill="#764c4a"/>
        <g id="Group_6118" data-name="Group 6118" transform="translate(0 221.022)">
          <g id="Group_6117" data-name="Group 6117" transform="translate(0)" clip-path="url(#clip-path-2)">
            <g id="Group_6116" data-name="Group 6116" transform="translate(28.374 -3.5)">
              <g id="Group_6059" data-name="Group 6059" transform="translate(81.63)">
                <path id="Path_20032" data-name="Path 20032" d="M989.878,472.15a153.023,153.023,0,0,0,27.638,58.845c13.039,16.979,29.374,30.672,47.444,39.521a103.983,103.983,0,0,0,57.819,10.344,120.5,120.5,0,0,0,56.093-22.222,140.214,140.214,0,0,0,41.951-48.422q1.975-3.741,3.709-7.639c1.052-2.367-2-4.463-3.1-2.1a138.921,138.921,0,0,1-38.245,49.983,120.962,120.962,0,0,1-53.4,25.341,102.935,102.935,0,0,1-57.2-5.524c-18.14-7.161-34.753-19.285-48.386-34.869a149.159,149.159,0,0,1-30.619-55.825q-1.16-3.937-2.1-7.955c-.285-1.2-1.88-.692-1.608.515Z" transform="translate(-989.846 -470.949)" fill="#e47e7f"/>
              </g>
              <g id="Group_6060" data-name="Group 6060" transform="translate(46.921 12.713)">
                <path id="Path_20033" data-name="Path 20033" d="M958.56,483.823c10.883,23.694,23.295,46.352,39.1,66.355,15.771,19.956,34.881,36.391,56.945,46.558a141.6,141.6,0,0,0,71.9,12.066c24.089-2.156,47.476-10.223,68.962-22.525,21.348-12.225,40.779-28.547,57.857-47.372q3.249-3.582,6.385-7.288c1.659-1.951-.984-4.923-2.638-2.961-16.26,19.323-34.776,36.321-55.378,49.5-20.508,13.116-43.067,22.373-66.509,25.92a141.3,141.3,0,0,1-71.064-7.19c-22.564-8.517-42.287-23.536-58.978-42.433-16.387-18.553-29.52-40.437-41.036-63.048-1.429-2.8-2.788-5.652-4.138-8.5-.491-1.039-1.88-.119-1.4.921Z" transform="translate(-958.466 -482.443)" fill="#e47e7f"/>
              </g>
              <g id="Group_6061" data-name="Group 6061" transform="translate(21.607 26.623)">
                <path id="Path_20034" data-name="Path 20034" d="M935.688,496.407c13.779,27.27,29.543,53.36,49.545,76.292s44.2,41.742,72.06,53.3c28.427,11.8,59.634,16.045,90.121,13.505,30.233-2.519,59.6-11.78,86.6-25.9,26.761-13.994,51.15-32.668,72.611-54.234q4.058-4.077,7.979-8.3c1.832-1.967-1.077-4.97-2.9-2.993-20.4,22.067-43.608,41.466-69.364,56.522-25.8,15.079-54.109,25.716-83.545,29.9a194.523,194.523,0,0,1-90.03-8.037c-28.359-9.7-53.261-26.806-74.33-48.481-20.758-21.348-37.42-46.587-51.976-72.72-1.8-3.228-3.516-6.5-5.219-9.787-.543-1.047-2.076-.119-1.548.931Z" transform="translate(-935.581 -495.018)" fill="#e47e7f"/>
              </g>
              <g id="Group_6062" data-name="Group 6062" transform="translate(18.352 70.887)">
                <path id="Path_20035" data-name="Path 20035" d="M932.763,536.4c14.048,25.44,30.093,49.584,50.162,70.494,20.56,21.42,45.1,38.434,72.75,48.7,28.345,10.519,59.018,14.177,89.028,11.862a244.023,244.023,0,0,0,86.055-23.541A297.6,297.6,0,0,0,1303.7,594.11q4.055-3.726,7.983-7.6c1.909-1.88-1-4.855-2.9-2.972a300.764,300.764,0,0,1-69.677,51.876c-26.091,13.921-54.5,23.56-83.75,27.249-29.4,3.708-59.6,1.695-88.037-6.957-28.047-8.534-53.28-23.781-74.883-43.89-20.906-19.442-37.973-42.843-52.858-67.3-1.812-2.978-3.545-6.008-5.265-9.042-.578-1.019-2.113-.1-1.549.925Z" transform="translate(-932.637 -535.035)" fill="#e47e7f"/>
              </g>
              <g id="Group_6063" data-name="Group 6063" transform="translate(0 97.044)">
                <path id="Path_20036" data-name="Path 20036" d="M916.176,560.04c15.412,27.243,33.042,53.112,55.046,75.5,22.5,22.9,49.348,41.111,79.591,52.115,31.14,11.33,64.844,15.275,97.827,12.793a272.389,272.389,0,0,0,94.351-25.219,326.734,326.734,0,0,0,80.12-53.486q4.4-3.96,8.676-8.075c1.909-1.833-1-4.744-2.9-2.9A329.8,329.8,0,0,1,1252.21,666.5c-28.532,14.849-59.592,25.155-91.56,29.121-32.59,4.044-66.066,1.837-97.569-7.625-30.6-9.193-58.147-25.551-81.719-47.027-22.913-20.879-41.629-45.981-57.931-72.237-1.963-3.165-3.846-6.382-5.713-9.605a.9.9,0,0,0-1.549.9h0Z" transform="translate(-916.046 -558.683)" fill="#e47e7f"/>
              </g>
            </g>
          </g>
        </g>
      </g>
      <g id="Group_6122" data-name="Group 6122" transform="translate(5079.619 1300.234)">
        <g id="Mask_Group_23" data-name="Mask Group 23" clip-path="url(#clip-path-3)">
          <path id="Path_20105" data-name="Path 20105" d="M108.67,782.777a9.015,9.015,0,0,1,2.827-8.465c1.44-1.252,3.249-2,4.726-3.2a9.407,9.407,0,0,0,3.413-5.915,9.648,9.648,0,0,0-2.075-6.5,16.447,16.447,0,0,0-3.812-3.777,30.783,30.783,0,0,0-6.019-3.229c-3.55-1.513-5.714-7.038-4.48-10.747,1.555-4.671,7.482-6.276,11.692-7.085a18.253,18.253,0,0,1,8.676.881c6.063,2.01,9.858,7.319,10.777,13.623a25.012,25.012,0,0,1,.05,8.845c-.658,3.051-2.48,5.789-4.087,8.406-1.755,2.856-4.117,5.252-6.2,7.852-2.353,2.935-4.438,6.356-4.557,10.134a13.8,13.8,0,0,0,3.178,8.756,30.45,30.45,0,0,0,7.093,6.2,17.992,17.992,0,0,1-4.412-16.987c1.768-6.488,6.983-11.319,10.57-16.986,5.184-8.189,6.553-18.356,2.059-27.17a29.339,29.339,0,0,0-4.365-6.3q-.666-.738-1.371-1.439c-5.354-5.34-13.564-7.452-20.907-6.233-6.962,1.155-15.76,5.956-17.641,13.344-1.817,7.135,3.588,13.474,9.826,15.943,2.076.822,4.171,1.528,6.193,2.5,2.678,1.284,6.482,3.084,7.676,6.064,1.1,2.746-1.467,4.243-3.548,5.152a13.47,13.47,0,0,0-5.243,3.873C105.847,773.932,106.439,778.973,108.67,782.777Z" fill="#d64444"/>
          <path id="Path_20106" data-name="Path 20106" d="M126.631,612.752a9.676,9.676,0,0,1,9.528-2.09c1.989.671,3.712,1.985,5.68,2.717a10.124,10.124,0,0,0,7.473-.081,10.532,10.532,0,0,0,4.909-5.677,18.484,18.484,0,0,0,1.374-5.8,35.01,35.01,0,0,0-.39-7.6c-.6-4.264,3.349-9.472,7.521-10.391,5.255-1.158,10.119,3.617,13.264,7.2a20.736,20.736,0,0,1,4.1,8.821c1.557,6.954-1.261,13.605-6.642,18.062a26.921,26.921,0,0,1-8.253,5.064c-3.23,1.1-6.827.9-10.188.847-3.669-.063-7.252-.97-10.869-1.495-4.082-.593-8.468-.653-12.072,1.375a15.094,15.094,0,0,0-6.4,8.015,34.282,34.282,0,0,0-1.782,10.318,19.6,19.6,0,0,1,13.4-13.865c7.077-1.983,14.557.279,21.9.506,10.608.327,20.9-4.125,26.607-13.434a32.6,32.6,0,0,0,3.424-7.76q.315-1.058.571-2.131c1.963-8.164-.716-17.235-6.021-23.588-5.03-6.022-14.514-11.738-22.5-9.352-7.709,2.3-10.579,11.082-9.354,18.466.408,2.457.935,4.866,1.174,7.355.317,3.3.789,7.966-1.324,10.8-1.947,2.612-4.8,1-6.836-.482a14.775,14.775,0,0,0-6.6-2.832C133.311,605.028,128.928,608.454,126.631,612.752Z" fill="#d64444"/>
          <path id="Path_20107" data-name="Path 20107" d="M282.7,777.769a9.867,9.867,0,0,1-5.951,7.817c-1.947.786-4.1.906-6.071,1.631a10.277,10.277,0,0,0-5.661,4.94,10.7,10.7,0,0,0-.134,7.543,18.381,18.381,0,0,0,2.644,5.328,34.389,34.389,0,0,0,5.143,5.557c3.173,2.869,3.476,9.425.873,12.851-3.278,4.315-10.038,3.841-14.722,3.158a20.277,20.277,0,0,1-8.751-4.068c-5.62-4.3-7.7-11.222-6.432-18.14a27.549,27.549,0,0,1,3.081-9.257c1.768-2.949,4.641-5.147,7.247-7.3,2.844-2.347,6.16-3.992,9.259-5.952,3.5-2.211,6.888-5.028,8.35-8.931a15.3,15.3,0,0,0-.219-10.3,34,34,0,0,0-5.212-9.049,19.912,19.912,0,0,1-1.408,19.345c-4.146,6.135-11.3,9.289-17.058,13.906-8.315,6.674-13.347,16.8-11.775,27.634a32.692,32.692,0,0,0,2.328,8.166c.289.676.6,1.343.922,2,3.7,7.52,11.529,12.7,19.631,14.1,7.681,1.32,18.572-.5,23.154-7.538,4.424-6.793,1.023-15.375-4.617-20.219-1.878-1.611-3.816-3.108-5.585-4.855-2.342-2.312-5.678-5.573-5.87-9.119-.177-3.267,3.035-3.9,5.531-4.094a14.738,14.738,0,0,0,6.848-2.143C282.521,788.033,283.688,782.553,282.7,777.769Z" fill="#d64444"/>
          <path id="Path_20108" data-name="Path 20108" d="M284.409,632.383a32.257,32.257,0,0,1-23.988,21.551c-6.77,1.325-13.8.373-20.612,1.487-7.929,1.3-16.5,5.726-21.3,12.435-4.963,6.945-5.943,16-5.025,24.292a60.729,60.729,0,0,0,5.3,18.867c3.495,7.646,8.2,14.5,13.24,21.164,8.506,11.249,5.495,32.625-5,42.073-13.219,11.9-34.777,6.155-49.5,1.03-9.676-3.368-19.07-11.072-25.8-18.6-15.548-17.4-18.069-41.067-9.748-62.631,3.844-9.961,8.449-19.98,15.591-27.995,7.508-8.426,18.13-13.739,27.859-19.064,10.62-5.813,22.337-9.064,33.543-13.463,12.648-4.966,25.319-11.958,32.42-23.658,5.965-9.828,7.279-22.019,5.561-33.422s-6.256-22.169-11.339-32.493c5.754,21.511-.71,45.923-16.322,61.638-17.129,17.243-42.181,22.972-63.586,34.308-30.933,16.382-53.353,45.957-54.868,81.962a107.885,107.885,0,0,0,2.553,27.841q.786,3.543,1.761,7.041c7.386,26.61,29.526,48.244,54.864,57.794,24.018,9.053,60.321,9.952,79.41-9.926,18.432-19.2,12.665-49.051-2.617-68.219-5.085-6.378-10.438-12.425-15.092-19.17-6.163-8.935-14.96-21.55-13.421-33.131,1.417-10.668,12.182-10.711,20.366-9.782,7.89.9,16.055.308,23.434-2.657C277.568,665.437,284.674,648.455,284.409,632.383Z" fill="#d64444" opacity="0.28"/>
        </g>
      </g>
      <g id="Group_6113" data-name="Group 6113" transform="translate(4910.61 1672.989)">
        <path id="Path_20095" data-name="Path 20095" d="M520.783,575.02l-282.91.167c-37.2-79.368-37.2-168.657-7.441-184.78,28.346-15.354,101.138-15.118,108.007-15.06-4.331,11.77-6.216,24.5-1.309,35.769,5.962,13.692,21.113,21.869,36.03,22.572s29.5-5.014,42.23-12.82A132.928,132.928,0,0,0,455.247,383c15.045,3.133,28.806,16.454,36.525,29.743s11.394,28.5,14.444,43.561C514.077,495.136,520.026,535.405,520.783,575.02Z" transform="translate(-208.963 -185.019)" fill="#e39e0f"/>
        <path id="Path_20097" data-name="Path 20097" d="M439.378,437.995c-10.465,14.663-24.222,28.868-39.962,38.171-12.731,7.527-27.311,13.039-42.23,12.362s-30.069-8.562-36.03-21.764c-4.907-10.866-3.092-25.236,1.238-36.584a6.719,6.719,0,0,0,1.287-.313c13.049-5.032,10.156-23.094,9.042-26.555-2.661-8.261-13.164-11.2-22.267-10.642a155.154,155.154,0,0,0-16.106,1.54c-5.235.663-11.374.9-15.345-2.482-3.621-3.085-4.21-8.319-3.751-12.957s1.607-9.3.7-13.873a6.789,6.789,0,0,0-3.669-1.746c5.29-4.727,8.638-7.258,3.664-12.248-1.526-3.192-5.4-3.7-9.6-4.487,1.339-4.22.169-6.983-1.778-8.412-1.877,0-3.773-.148-5.615-.309-3.333-.292-7.057-.78-9.121-3.321-2.288-2.821-1.447-6.574.162-10.02a25.5,25.5,0,0,1,2.158-3.937c4.785-8.014,16.6-26.05,18.193-34.645,1.343-7.261-.218-13.578-.067-20.81A46.632,46.632,0,0,1,276.2,243.27a28.464,28.464,0,0,1,2.263-3.414,141.454,141.454,0,0,0,12,22.513c6.212,9.1,14.409,17.163,24.578,21.507,11.453,4.891,24.54,4.707,36.755,2.229l-.11-.552c.034-.014.067-.021.1-.035,2.311-6.26,9.5-10.305,16.274-9.087a17.675,17.675,0,0,1,13.677,13.4c1.429,6.5-.931,13.507-5.54,18.444s-11.259,7.885-18.089,8.764c5.252,10,5.8,22.664,4.463,33.884-1.158,9.691-4.834,19.289-3.409,28.945a28.781,28.781,0,0,0,13.372,19.914C398.16,415.583,411.1,423.073,439.378,437.995Z" transform="translate(-192.988 -239.856)" fill="#f69b82"/>
        <path id="Path_20098" data-name="Path 20098" d="M332.834,362.471c2.212-7.645,5.81-19.591,6.309-28.057-12.452,9.961-29.76,18.218-44.087,19.94,8.141.3,16.467,3.458,18.794,10.685,1.006,3.124,3.454,18.133-5.664,24.732a36.538,36.538,0,0,0,10.853-6.227A46.99,46.99,0,0,0,332.834,362.471Z" transform="translate(-174.116 -201.584)" fill="#e9846e"/>
        <path id="Path_20099" data-name="Path 20099" d="M284.874,318.459c-3.124,6.248-8.754,10.5-13.29,13.394a6.335,6.335,0,0,1-3.217,1.231,3.9,3.9,0,0,1-3.588-2.811c-.5-1.637-.008-4.724,1.249-5.755a14.222,14.222,0,0,1-3.79-2.446c-1-1.024-2.274-2.648-1.892-4.344.465-2.061,1.806-3.38,3.39-3.489,3.574-.246,6.309,1.493,9.773,3.276a14.453,14.453,0,0,0,4.439,1.771C280.27,319.61,283.433,318.674,284.874,318.459Z" transform="translate(-188.193 -209.759)" fill="#f05b5a"/>
        <path id="Path_20100" data-name="Path 20100" d="M287.019,260.657a130.944,130.944,0,0,0-17.391,4.322c.26,2.137.167,4.735.427,6.872a118.6,118.6,0,0,1,20.964-6.125c.249-.053.492-.086.739-.135A65.245,65.245,0,0,1,287.019,260.657Z" transform="translate(-184.408 -231.437)" fill="#9b665c"/>
        <path id="Path_20101" data-name="Path 20101" d="M272.273,285.446c10.016,3.909,24.093,2.034,32.677-4.442a27.969,27.969,0,0,0-4.537-8A32.122,32.122,0,0,1,272.273,285.446Z" transform="translate(-183.338 -226.438)" fill="#9b665c"/>
        <circle id="Ellipse_141" data-name="Ellipse 141" cx="11.276" cy="11.276" r="11.276" transform="matrix(0.261, -0.965, 0.965, 0.261, 155.466, 87.424)" fill="#f05b5a"/>
        <path id="Path_20102" data-name="Path 20102" d="M286.384,595.752,248.616,435.776,317.9,596.856Z" transform="translate(-192.913 -160.557)" fill="#c18710"/>
      </g>
    </g>
  </g>
</svg>
