<svg xmlns="http://www.w3.org/2000/svg" width="12.207" height="13.739" viewBox="0 0 12.207 13.739">
  <path id="Path_15587" data-name="Path 15587" d="M3643.352-2451.75a2.277,2.277,0,0,1,2.4-1.411,2.374,2.374,0,0,1,1.052.411.127.127,0,0,0,.113.006q1.136-.676,2.269-1.358c.521-.312,1.04-.627,1.562-.937a.142.142,0,0,0,.087-.17,2.283,2.283,0,0,1,1.651-2.471,2.281,2.281,0,0,1,2.6,1.067,2.294,2.294,0,0,1-.12,2.46,2.243,2.243,0,0,1-2.052.956,2.1,2.1,0,0,1-1.121-.4.135.135,0,0,0-.175-.008q-1.771,1.068-3.545,2.132c-.094.057-.187.115-.283.168a.111.111,0,0,0-.062.122c.009.193.011.387,0,.58a.126.126,0,0,0,.068.139q1.046.624,2.09,1.252c.561.337,1.123.673,1.682,1.015a.206.206,0,0,0,.26,0,2.185,2.185,0,0,1,2.371-.1,2.188,2.188,0,0,1,1.179,2.179,2.282,2.282,0,0,1-1.938,2.086,3.731,3.731,0,0,1-.66,0,2.287,2.287,0,0,1-1.948-2.57.137.137,0,0,0-.053-.11q-1.926-1.163-3.857-2.316a.138.138,0,0,0-.122,0,2.288,2.288,0,0,1-3.554-1.3A2.32,2.32,0,0,1,3643.352-2451.75Z" transform="translate(-3643.181 2457.761)" fill="#aeaeae"/>
</svg>
