<svg xmlns="http://www.w3.org/2000/svg" width="15.377" height="17.308" viewBox="0 0 15.377 17.308">
  <path id="Path_15587" data-name="Path 15587" d="M3643.4-2450.188a2.868,2.868,0,0,1,3.023-1.777,3,3,0,0,1,1.325.518.158.158,0,0,0,.142.008q1.431-.851,2.858-1.711c.656-.394,1.311-.79,1.969-1.18a.18.18,0,0,0,.109-.214,2.876,2.876,0,0,1,2.079-3.113,2.874,2.874,0,0,1,3.278,1.345,2.891,2.891,0,0,1-.151,3.1,2.826,2.826,0,0,1-2.585,1.2,2.642,2.642,0,0,1-1.412-.509.17.17,0,0,0-.22-.01q-2.231,1.345-4.466,2.686c-.118.072-.236.145-.357.211a.14.14,0,0,0-.079.154c.011.243.015.488,0,.731a.158.158,0,0,0,.085.176q1.318.786,2.633,1.577c.707.425,1.415.848,2.119,1.278a.259.259,0,0,0,.328,0,2.752,2.752,0,0,1,2.987-.13,2.757,2.757,0,0,1,1.485,2.746,2.876,2.876,0,0,1-2.441,2.628,4.723,4.723,0,0,1-.831,0,2.88,2.88,0,0,1-2.454-3.237.173.173,0,0,0-.067-.138q-2.427-1.465-4.858-2.917a.176.176,0,0,0-.154,0,2.882,2.882,0,0,1-4.477-1.638A2.923,2.923,0,0,1,3643.4-2450.188Z" transform="translate(-3643.181 2457.761)" fill="#aeaeae"/>
</svg>
